<?xml version="1.0" encoding="UTF-8"?>
<!DOCTYPE svg PUBLIC "-//W3C//DTD SVG 1.1//EN" "http://www.w3.org/Graphics/SVG/1.1/DTD/svg11.dtd">
<!-- Creator: CorelDRAW X7 -->
<svg xmlns="http://www.w3.org/2000/svg" xml:space="preserve" width="5.5425mm" height="8.0848mm" version="1.1" style="shape-rendering:geometricPrecision; text-rendering:geometricPrecision; image-rendering:optimizeQuality; fill-rule:evenodd; clip-rule:evenodd"
viewBox="0 0 118 173"
 xmlns:xlink="http://www.w3.org/1999/xlink">
 <defs>
  <style type="text/css">
   <![CDATA[
    .str0 {stroke:#898989;stroke-width:2.26118}
    .fil0 {fill:none}
   ]]>
  </style>
 </defs>
 <g id="Layer_x0020_1">
  <metadata id="CorelCorpID_0Corel-Layer"/>
  <path class="fil0 str0" d="M1 79l8 64c19,4 36,15 49,29l0 -62c-15,-17 -35,-28 -57,-31zm82 -57c-8,-3 -16,-5 -24,-5 -8,0 -16,2 -23,5l0 26c7,-1 15,-2 23,-2 8,0 16,1 24,2l0 -26zm-69 45l0 11c17,5 32,14 43,27 -10,-17 -25,-30 -43,-38zm3 -11l0 9c16,7 30,19 40,33 -8,-18 -23,-33 -40,-42zm100 23c-22,3 -42,14 -56,31l0 62c12,-14 29,-25 48,-29l8 -64zm-13 -12c-18,8 -33,21 -43,38 12,-13 27,-22 43,-27l0 -11zm-2 -11c-18,9 -32,24 -41,42 10,-14 24,-26 41,-33l0 -9zm-90 -37l21 8 0 -7 1 -1c8,-3 17,-4 25,-4 9,0 17,1 25,4l1 1 0 7 17 -6 0 19 -1 0c0,0 0,1 0,1 0,1 0,1 0,1l1 1 -2 8 4 0 -2 -8 1 -1c0,0 0,0 0,-1 0,0 0,-1 0,-1l-1 0 0 -19 5 -2 -48 -18 -47 18z"/>
 </g>
</svg>
