<?xml version="1.0" encoding="UTF-8"?>
<!DOCTYPE svg PUBLIC "-//W3C//DTD SVG 1.1//EN" "http://www.w3.org/Graphics/SVG/1.1/DTD/svg11.dtd">
<!-- Creator: CorelDRAW X7 -->
<svg xmlns="http://www.w3.org/2000/svg" xml:space="preserve" width="9.783mm" height="7.2528mm" version="1.1" style="shape-rendering:geometricPrecision; text-rendering:geometricPrecision; image-rendering:optimizeQuality; fill-rule:evenodd; clip-rule:evenodd"
viewBox="0 0 148 110"
 xmlns:xlink="http://www.w3.org/1999/xlink">
 <defs>
  <style type="text/css">
   <![CDATA[
    .str0 {stroke:#898989;stroke-width:1.60553}
    .fil0 {fill:none}
   ]]>
  </style>
 </defs>
 <g id="Layer_x0020_1">
  <metadata id="CorelCorpID_0Corel-Layer"/>
  <path class="fil0 str0" d="M16 94l0 -5c0,-4 3,-8 7,-8l5 0c4,0 7,4 7,8l0 5"/>
  <path class="fil0 str0" d="M40 94c0,-2 0,-4 0,-5 0,-4 3,-8 7,-8 2,0 4,0 5,0 4,0 8,4 8,8 0,1 0,3 0,5"/>
  <path class="fil0 str0" d="M64 94c0,-2 0,-4 0,-5 0,-4 4,-8 8,-8 1,0 3,0 5,0 4,0 7,4 7,8 0,1 0,3 0,5"/>
  <path class="fil0 str0" d="M89 94c0,-2 0,-4 0,-5 0,-4 3,-8 7,-8 2,0 3,0 5,0 4,0 7,4 7,8 0,1 0,3 0,5"/>
  <path class="fil0 str0" d="M113 94l0 -5c0,-4 3,-8 7,-8l5 0c4,0 8,4 8,8l0 5"/>
  <path class="fil0 str0" d="M28 110c0,-2 0,-3 0,-5 0,-4 3,-7 7,-7 2,0 4,0 5,0 4,0 8,3 8,7 0,2 0,3 0,5"/>
  <path class="fil0 str0" d="M52 110c0,-2 0,-3 0,-5 0,-4 4,-7 8,-7 1,0 3,0 5,0 4,0 7,3 7,7 0,2 0,3 0,5"/>
  <path class="fil0 str0" d="M77 110c0,-2 0,-3 0,-5 0,-4 3,-7 7,-7 2,0 3,0 5,0 4,0 7,3 7,7 0,2 0,3 0,5"/>
  <path class="fil0 str0" d="M101 110l0 -5c0,-4 3,-7 7,-7l5 0c4,0 8,3 8,7l0 5"/>
  <path class="fil0 str0" d="M148 1l0 69c-22,-1 -47,-2 -74,-2 -26,0 -51,1 -73,2l0 -69c22,1 47,2 73,2 27,0 52,-1 74,-2z"/>
 </g>
</svg>
