<?xml version="1.0" encoding="UTF-8"?>
<!DOCTYPE svg PUBLIC "-//W3C//DTD SVG 1.1//EN" "http://www.w3.org/Graphics/SVG/1.1/DTD/svg11.dtd">
<!-- Creator: CorelDRAW X7 -->
<svg xmlns="http://www.w3.org/2000/svg" xml:space="preserve" width="10.8974mm" height="6.6457mm" version="1.1" style="shape-rendering:geometricPrecision; text-rendering:geometricPrecision; image-rendering:optimizeQuality; fill-rule:evenodd; clip-rule:evenodd"
viewBox="0 0 2899 1768"
 xmlns:xlink="http://www.w3.org/1999/xlink">
 <defs>
  <style type="text/css">
   <![CDATA[
    .str0 {stroke:#898989;stroke-width:28.1439}
    .fil0 {fill:none}
   ]]>
  </style>
 </defs>
 <g id="Layer_x0020_1">
  <metadata id="CorelCorpID_0Corel-Layer"/>
  <path class="fil0 str0" d="M208 1139l1 0c5,10 11,19 18,28l240 0 0 237c0,19 -16,34 -35,34l-190 0c-18,0 -34,-15 -34,-34l0 -265z"/>
  <path class="fil0 str0" d="M522 58c-101,35 -106,66 -136,156l-100 292 -14 15c-34,-44 -78,-90 -78,-90 0,0 -171,-26 -179,58 -7,84 22,103 64,99 42,-3 110,25 110,25 -68,199 -76,388 38,554l245 0c-1,-86 18,-176 50,-268 0,0 -68,-27 -110,-24 -42,3 -72,-16 -64,-100 7,-84 179,-58 179,-58 0,0 43,46 78,90l13 -14 100 -293c31,-90 35,-121 137,-155 136,-47 514,-57 755,-31l-34 -100c-31,-90 -35,-121 -137,-156 -173,-59 -743,-59 -917,0zm1411 514c12,-15 17,-41 13,-83 -3,-32 -30,-48 -62,-56 8,18 15,40 24,67l25 72z"/>
  <path class="fil0 str0" d="M1560 310l-28 -81c-27,-80 -24,-99 -108,-127 -164,-56 -722,-56 -887,0 -83,28 -81,47 -108,127l-94 276c91,-25 236,-41 398,-49 21,-57 39,-83 122,-111 126,-44 464,-55 705,-35z"/>
  <path class="fil0 str0" d="M268 738c36,0 68,1 97,3 -10,8 -16,19 -17,34 -8,84 22,103 64,100 26,-2 63,8 87,16l-231 0c-20,0 -36,-16 -36,-36l0 -81c0,-20 16,-36 36,-36z"/>
  <path class="fil0 str0" d="M540 1425l1 0c6,10 12,19 18,28l240 0 0 237c0,19 -15,34 -34,34l-190 0c-19,0 -35,-15 -35,-34l0 -265z"/>
  <path class="fil0 str0" d="M855 345c-102,34 -106,65 -137,155l-100 293 -13 14c-35,-44 -78,-90 -78,-90 0,0 -172,-26 -179,58 -8,84 22,103 64,100 42,-3 110,24 110,24 -69,199 -77,388 37,554l1508 0c114,-166 106,-355 38,-554 0,0 68,-27 110,-24 42,3 71,-16 64,-100 -8,-84 -179,-58 -179,-58 0,0 -44,46 -78,90l-14 -14 -100 -293c-30,-90 -35,-121 -137,-155 -173,-59 -743,-59 -916,0z"/>
  <path class="fil0 str0" d="M1959 791l-94 -276c-27,-79 -25,-98 -108,-127 -165,-56 -723,-56 -887,0 -84,29 -81,48 -108,127l-94 276c271,-73 1020,-73 1291,0z"/>
  <path class="fil0 str0" d="M2086 1425l-1 0c-5,10 -11,19 -18,28l-240 0 0 237c0,19 16,34 35,34l190 0c18,0 34,-15 34,-34l0 -265z"/>
  <path class="fil0 str0" d="M601 1024c218,0 285,30 274,117 -3,20 -16,36 -36,36l-238 0c-20,0 -36,-16 -36,-36l0 -81c0,-20 16,-36 36,-36z"/>
  <path class="fil0 str0" d="M2026 1024c-219,0 -285,30 -274,117 2,20 16,36 35,36l239 0c20,0 36,-16 36,-36l0 -81c0,-20 -16,-36 -36,-36z"/>
  <line class="fil0 str0" x1="1036" y1="1118" x2="1625" y2= "1118" />
  <line class="fil0 str0" x1="1036" y1="1235" x2="1625" y2= "1235" />
  <rect class="fil0 str0" x="2511" y="325" width="374" height="1429"/>
  <path class="fil0 str0" d="M2511 840c-48,172 -172,259 -358,277"/>
  <polygon class="fil0 str0" points="2028,324 2027,323 2185,85 2144,263 2245,263 2246,264 2088,502 2129,324 "/>
  <polygon class="fil0 str0" points="2271,561 2271,560 2371,410 2345,522 2408,522 2409,523 2309,673 2335,561 "/>
  <polygon class="fil0 str0" points="2572,702 2572,700 2749,433 2702,633 2816,633 2817,634 2639,902 2686,702 "/>
 </g>
</svg>
