<?xml version="1.0" encoding="UTF-8"?>
<!DOCTYPE svg PUBLIC "-//W3C//DTD SVG 1.1//EN" "http://www.w3.org/Graphics/SVG/1.1/DTD/svg11.dtd">
<!-- Creator: CorelDRAW X7 -->
<svg xmlns="http://www.w3.org/2000/svg" xml:space="preserve" width="9.9636mm" height="8.0991mm" version="1.1" style="shape-rendering:geometricPrecision; text-rendering:geometricPrecision; image-rendering:optimizeQuality; fill-rule:evenodd; clip-rule:evenodd"
viewBox="0 0 223 181"
 xmlns:xlink="http://www.w3.org/1999/xlink">
 <defs>
  <style type="text/css">
   <![CDATA[
    .str0 {stroke:#898989;stroke-width:2.3694}
    .fil0 {fill:none}
   ]]>
  </style>
 </defs>
 <g id="Layer_x0020_1">
  <metadata id="CorelCorpID_0Corel-Layer"/>
  <rect class="fil0 str0" x="57" y="23" width="109" height="149"/>
  <rect class="fil0 str0" x="49" y="1" width="126.096" height="21.3805"/>
  <rect class="fil0 str0" x="1" y="88" width="55.9226" height="83.3359"/>
  <rect class="fil0 str0" x="166" y="88" width="55.9226" height="83.3359"/>
  <rect class="fil0 str0" x="12" y="104" width="35.0742" height="12.7929"/>
  <rect class="fil0 str0" x="12" y="143" width="35.0742" height="12.7929"/>
  <rect class="fil0 str0" x="12" y="123" width="35.0742" height="12.7929"/>
  <rect class="fil0 str0" x="176" y="104" width="35.0742" height="12.7929"/>
  <rect class="fil0 str0" x="176" y="143" width="35.0742" height="12.7929"/>
  <rect class="fil0 str0" x="176" y="123" width="35.0742" height="12.7929"/>
  <rect class="fil0 str0" x="103" y="81" width="17.2681" height="17.268"/>
  <rect class="fil0 str0" x="73" y="81" width="17.2681" height="17.268"/>
  <rect class="fil0 str0" x="133" y="81" width="17.2681" height="17.268"/>
  <polygon class="fil0 str0" points="118,73 105,73 105,60 92,60 92,47 105,47 105,33 118,33 118,47 131,47 131,60 118,60 "/>
  <rect class="fil0 str0" x="72" y="171" width="78.7639" height="8.86675"/>
  <rect class="fil0 str0" x="78" y="125" width="33.5371" height="46.236"/>
  <line class="fil0 str0" x1="105" y1="145" x2="105" y2= "153" />
  <rect class="fil0 str0" x="112" y="125" width="33.5371" height="46.236"/>
  <line class="fil0 str0" x1="118" y1="145" x2="118" y2= "153" />
  <rect class="fil0 str0" x="72" y="116" width="78.7639" height="8.86675"/>
 </g>
</svg>
