<?xml version="1.0" encoding="UTF-8"?>
<!DOCTYPE svg PUBLIC "-//W3C//DTD SVG 1.1//EN" "http://www.w3.org/Graphics/SVG/1.1/DTD/svg11.dtd">
<!-- Creator: CorelDRAW X7 -->
<svg xmlns="http://www.w3.org/2000/svg" xml:space="preserve" width="9.8061mm" height="8.099mm" version="1.1" style="shape-rendering:geometricPrecision; text-rendering:geometricPrecision; image-rendering:optimizeQuality; fill-rule:evenodd; clip-rule:evenodd"
viewBox="0 0 156 129"
 xmlns:xlink="http://www.w3.org/1999/xlink">
 <defs>
  <style type="text/css">
   <![CDATA[
    .str0 {stroke:#898989;stroke-width:1.68723;stroke-linecap:round;stroke-linejoin:round}
    .fil0 {fill:none}
   ]]>
  </style>
 </defs>
 <g id="Layer_x0020_1">
  <metadata id="CorelCorpID_0Corel-Layer"/>
  <path class="fil0 str0" d="M9 114l0 0c1,0 1,1 1,1l11 0 0 11c0,1 -1,1 -2,1l-8 0c-1,0 -2,0 -2,-1l0 -12z"/>
  <path class="fil0 str0" d="M23 66c-4,2 -4,3 -6,7l-4 13 -1 1c-1,-2 -3,-4 -3,-4 0,0 -8,-2 -8,2 0,4 1,5 3,5 2,-1 5,1 5,1 -3,8 -4,17 1,24l67 0c5,-7 5,-16 2,-24 0,0 3,-2 5,-1 2,0 3,-1 3,-5 -1,-4 -8,-2 -8,-2 0,0 -2,2 -4,4l0 -1 -5 -13c-1,-4 -1,-5 -6,-7 -8,-3 -33,-3 -41,0z"/>
  <path class="fil0 str0" d="M16 86c13,-3 43,-3 55,0l-4 -12c-1,-3 -1,-4 -4,-5 -7,-3 -32,-3 -39,0 -3,1 -3,2 -4,5l-4 12z"/>
  <path class="fil0 str0" d="M78 114l0 0c0,0 -1,1 -1,1l-10 0 0 11c0,1 0,1 1,1l9 0c0,0 1,0 1,-1l0 -12z"/>
  <path class="fil0 str0" d="M12 96c10,0 13,1 12,5 0,1 0,2 -1,2l-11 0c-1,0 -1,-1 -1,-2l0 -3c0,-1 0,-2 1,-2z"/>
  <path class="fil0 str0" d="M75 96c-9,0 -12,1 -12,5 0,1 1,2 2,2l10 0c1,0 2,-1 2,-2l0 -3c0,-1 -1,-2 -2,-2z"/>
  <line class="fil0 str0" x1="31" y1="100" x2="58" y2= "100" />
  <line class="fil0 str0" x1="31" y1="106" x2="58" y2= "106" />
  <rect class="fil0 str0" x="104" y="74" width="14.102" height="53.9192"/>
  <polygon class="fil0 str0" points="106,89 106,89 113,78 111,86 115,86 115,86 108,96 110,89 "/>
  <path class="fil0 str0" d="M104 94c-3,9 -11,12 -23,10"/>
  <circle class="fil0 str0" cx="95" cy="45" r="14"/>
  <polyline class="fil0 str0" points="34,50 95,1 156,50 "/>
  <polyline class="fil0 str0" points="45,50 95,10 144,50 144,111 "/>
  <line class="fil0 str0" x1="144" y1="50" x2="144" y2= "111" />
 </g>
</svg>
