<?xml version="1.0" encoding="UTF-8"?>
<!DOCTYPE svg PUBLIC "-//W3C//DTD SVG 1.1//EN" "http://www.w3.org/Graphics/SVG/1.1/DTD/svg11.dtd">
<!-- Creator: CorelDRAW X7 -->
<svg xmlns="http://www.w3.org/2000/svg" xml:space="preserve" width="9.2134mm" height="8.218mm" version="1.1" style="shape-rendering:geometricPrecision; text-rendering:geometricPrecision; image-rendering:optimizeQuality; fill-rule:evenodd; clip-rule:evenodd"
viewBox="0 0 1468 1310"
 xmlns:xlink="http://www.w3.org/1999/xlink">
 <defs>
  <style type="text/css">
   <![CDATA[
    .str0 {stroke:#898989;stroke-width:16.8629}
    .fil0 {fill:none}
    .fil1 {fill:none;fill-rule:nonzero}
   ]]>
  </style>
 </defs>
 <g id="Layer_x0020_1">
  <metadata id="CorelCorpID_0Corel-Layer"/>
  <polygon class="fil0 str0" points="133,406 211,376 211,544 133,568 "/>
  <polygon class="fil0 str0" points="133,630 211,608 211,774 133,791 "/>
  <polygon class="fil0 str0" points="281,349 359,320 359,498 281,522 "/>
  <polygon class="fil0 str0" points="281,588 359,566 359,742 281,759 "/>
  <polygon class="fil0 str0" points="997,294 997,158 1094,241 1094,367 "/>
  <polygon class="fil0 str0" points="997,516 997,385 1094,450 1094,573 "/>
  <polygon class="fil0 str0" points="997,740 997,605 1094,654 1094,780 "/>
  <polygon class="fil0 str0" points="997,965 997,822 1094,856 1094,989 "/>
  <polygon class="fil0 str0" points="997,1186 997,1048 1094,1064 1094,1193 "/>
  <polygon class="fil0 str0" points="1147,286 1243,368 1243,479 1147,407 "/>
  <polygon class="fil0 str0" points="1147,485 1243,550 1243,662 1147,605 "/>
  <polygon class="fil0 str0" points="1147,680 1243,729 1243,842 1147,802 "/>
  <polygon class="fil0 str0" points="1147,875 1243,909 1243,1025 1147,1002 "/>
  <polygon class="fil0 str0" points="1147,1074 1243,1090 1243,1204 1147,1197 "/>
  <polygon class="fil0 str0" points="1291,409 1388,492 1388,588 1291,515 "/>
  <polygon class="fil0 str0" points="1291,582 1388,647 1388,748 1291,691 "/>
  <polygon class="fil0 str0" points="1291,753 1388,802 1388,901 1291,861 "/>
  <polygon class="fil0 str0" points="1291,926 1388,960 1388,1060 1291,1037 "/>
  <polygon class="fil0 str0" points="1291,1099 1388,1115 1388,1215 1291,1208 "/>
  <path class="fil0 str0" d="M1425 467l-486 -448 0 0 0 0 -346 143 0 562 -25 5 0 -437 -157 -55 -353 146 0 456 -50 10 0 137 50 -6 461 -62 420 -57 0 40 -848 113 0 0 0 229 -26 0 0 58 26 0c445,0 889,0 1334,0l35 0 0 -58 -35 0 0 -776z"/>
  <polygon class="fil0 str0" points="659,204 737,174 737,380 659,404 "/>
  <polygon class="fil0 str0" points="659,480 737,457 737,661 659,678 "/>
  <polygon class="fil0 str0" points="814,145 891,114 891,331 814,356 "/>
  <polygon class="fil0 str0" points="814,435 891,413 891,628 814,644 "/>
  <path class="fil1 str0" d="M187 948c0,-19 0,-39 0,-59 0,-19 0,-39 0,-58 8,-2 16,-3 23,-5 0,8 0,16 0,24 0,7 0,15 0,23 16,-3 31,-5 47,-8 0,-8 0,-16 0,-24 0,-7 0,-15 0,-23 8,-2 16,-3 24,-5 0,21 0,41 0,61 0,20 0,40 0,61 -8,1 -16,2 -24,3 0,-9 0,-17 0,-26 0,-9 0,-18 0,-27 -16,3 -31,6 -47,8 0,9 0,17 0,26 0,9 0,17 0,26 -7,1 -15,2 -23,3zm142 -81c0,-13 2,-24 6,-33 2,-7 6,-13 11,-19 4,-5 9,-10 15,-14 7,-4 16,-7 25,-9 18,-3 32,0 42,10 5,5 9,11 12,18 2,8 4,17 4,27 0,11 -2,20 -4,29 -3,8 -7,15 -12,22 -10,13 -24,21 -41,23 -18,3 -32,-1 -42,-10 -5,-5 -9,-11 -12,-19 -2,-7 -4,-15 -4,-25zm25 -5c0,14 3,24 9,30 6,7 14,9 24,8 9,-2 17,-7 23,-15 3,-4 5,-9 7,-15 1,-5 2,-12 2,-19 0,-15 -3,-25 -9,-31 -6,-6 -14,-8 -23,-7 -10,2 -18,7 -24,15 -6,8 -9,20 -9,34zm164 38c0,-18 0,-36 0,-54 0,-18 0,-36 0,-54 -12,2 -24,4 -35,6 0,-7 0,-14 0,-21 31,-6 62,-12 93,-17 0,7 0,14 0,22 -12,2 -23,4 -35,6 0,18 0,36 0,54 0,18 0,36 0,54 -8,2 -16,3 -23,4zm102 -15c0,-22 0,-45 0,-67 0,-22 0,-44 0,-67 29,-5 58,-10 88,-16 0,8 0,16 0,24 -22,3 -43,7 -64,11 0,10 0,20 0,30 20,-4 39,-7 59,-10 0,7 0,15 0,23 -20,3 -39,6 -59,9 0,6 0,12 0,19 0,6 0,12 0,18 22,-4 44,-7 66,-10 0,7 0,15 0,23 -30,4 -60,9 -90,13zm140 -20c0,-23 0,-46 0,-69 0,-23 0,-46 0,-69 7,-1 15,-3 23,-4 0,19 0,38 0,57 0,19 0,38 0,57 20,-2 40,-6 60,-9 0,8 0,16 0,24 -28,4 -56,9 -83,13z"/>
  <path class="fil0 str0" d="M655 1243l0 -127c0,-54 -44,-94 -97,-90l-100 8c-53,4 -97,51 -97,105l0 104 294 0z"/>
 </g>
</svg>
