<?xml version="1.0" encoding="UTF-8"?>
<!DOCTYPE svg PUBLIC "-//W3C//DTD SVG 1.1//EN" "http://www.w3.org/Graphics/SVG/1.1/DTD/svg11.dtd">
<!-- Creator: CorelDRAW X7 -->
<svg xmlns="http://www.w3.org/2000/svg" xml:space="preserve" width="13.7369mm" height="6.4528mm" version="1.1" style="shape-rendering:geometricPrecision; text-rendering:geometricPrecision; image-rendering:optimizeQuality; fill-rule:evenodd; clip-rule:evenodd"
viewBox="0 0 463 218"
 xmlns:xlink="http://www.w3.org/1999/xlink">
 <defs>
  <style type="text/css">
   <![CDATA[
    .str1 {stroke:#898989;stroke-width:3.56945}
    .str0 {stroke:#898989;stroke-width:3.56945;stroke-linecap:round;stroke-linejoin:round}
    .fil0 {fill:none}
   ]]>
  </style>
 </defs>
 <g id="Layer_x0020_1">
  <metadata id="CorelCorpID_0Corel-Layer"/>
  <path class="fil0 str0" d="M461 200l-20 0c1,-4 2,-8 2,-12 0,-19 -15,-34 -35,-34 -19,0 -34,15 -34,34 0,4 1,8 2,11l-168 0c1,-4 2,-7 2,-11 0,-19 -16,-34 -35,-34 -19,0 -34,15 -34,34 0,4 0,7 1,10l-38 -8 5 -7 0 -33 10 -8 0 -6c17,-13 41,-22 70,-26 20,-14 42,-27 66,-37 33,-8 91,-8 166,-2l16 -2 -9 9c8,14 20,38 22,61 15,10 11,45 11,61z"/>
  <path class="fil0 str0" d="M434 113c-11,-20 -14,-28 -18,-32 -5,-1 -10,-1 -14,-1l0 34 32 0 0 -1zm-232 1c7,-6 15,-11 23,-15l0 15 -23 0zm37 -22c6,-4 13,-7 19,-10 17,-4 37,-5 55,-5l0 37 -74 0 0 -22zm83 -15l0 0c22,0 44,1 67,2l0 35 -67 0 0 -37z"/>
  <line class="fil0 str0" x1="317" y1="124" x2="317" y2= "187" />
  <path class="fil0 str1" d="M175 161c16,0 28,12 28,27 0,16 -12,28 -28,28 -15,0 -27,-12 -27,-28 0,-15 12,-27 27,-27zm0 9c10,0 18,8 18,18 0,10 -8,18 -18,18 -10,0 -18,-8 -18,-18 0,-10 8,-18 18,-18z"/>
  <path class="fil0 str1" d="M408 161c16,0 28,12 28,27 0,16 -12,28 -28,28 -15,0 -27,-12 -27,-28 0,-15 12,-27 27,-27zm0 9c10,0 18,8 18,18 0,10 -8,18 -18,18 -9,0 -17,-8 -17,-18 0,-10 8,-18 17,-18z"/>
  <rect class="fil0 str0" x="2" y="2" width="58.0127" height="191.527"/>
  <polygon class="fil0 str1" points="47,69 47,69 24,35 30,60 16,60 16,60 38,94 32,69 "/>
  <path class="fil0 str0" d="M60 96c10,35 43,40 92,23"/>
 </g>
</svg>
