<?xml version="1.0" encoding="UTF-8"?>
<!DOCTYPE svg PUBLIC "-//W3C//DTD SVG 1.1//EN" "http://www.w3.org/Graphics/SVG/1.1/DTD/svg11.dtd">
<!-- Creator: CorelDRAW X7 -->
<svg xmlns="http://www.w3.org/2000/svg" xml:space="preserve" width="10.4164mm" height="7.3046mm" version="1.1" style="shape-rendering:geometricPrecision; text-rendering:geometricPrecision; image-rendering:optimizeQuality; fill-rule:evenodd; clip-rule:evenodd"
viewBox="0 0 352 247"
 xmlns:xlink="http://www.w3.org/1999/xlink">
 <defs>
  <style type="text/css">
   <![CDATA[
    .str0 {stroke:#898989;stroke-width:3.57731}
    .fil0 {fill:none}
   ]]>
  </style>
 </defs>
 <g id="Layer_x0020_1">
  <metadata id="CorelCorpID_0Corel-Layer"/>
  <path class="fil0 str0" d="M330 187c-3,3 -6,7 -9,9l-3 1 0 -2c0,-6 0,-12 0,-18 0,-4 0,-5 3,-8 3,-3 7,-7 9,-12 0,0 0,1 -1,1 -1,2 -3,4 -5,5 0,1 -2,2 -2,3l-3 6 -1 -31 1 -1c11,-7 22,-24 22,-37 1,-12 -5,-23 -13,-31 -3,-3 -4,-4 -5,-6l-2 -1c-3,-1 -6,-4 -8,-6 -24,-15 -50,-22 -77,-27l-2 -1 0 0 -1 0c-9,0 -18,-2 -27,-3 -20,-2 -40,-2 -59,0 -9,1 -19,3 -28,3l-1 0 0 0 -1 1c-27,5 -54,11 -77,27 -3,2 -6,5 -9,6l-2 2c0,0 0,0 -1,1 0,1 -2,2 -3,4 -19,20 -18,44 2,63 1,1 2,2 4,4 1,0 2,1 2,3 2,3 1,12 1,16l0 13 -3 -5c-1,-1 -2,-2 -3,-3 -2,-2 -4,-3 -5,-5 0,-1 -1,-1 -1,-1 1,2 2,4 4,6 1,2 2,3 3,5 1,1 4,3 5,5 0,1 0,3 0,5 0,3 0,7 0,11l0 9 -3 -2c-4,-3 -8,-7 -10,-11 11,24 50,42 71,47l28 7c7,1 5,2 7,6l3 -1 -12 -41 2 0c19,-4 37,-7 56,-7 19,0 38,3 56,7l2 0 -12 40 3 2c1,-2 1,-3 1,-4 1,-1 3,-1 4,-2 4,0 7,-1 11,-2 25,-5 60,-18 79,-36 3,-4 7,-9 10,-14zm-206 -146c32,-5 72,-5 105,0l2 1 -31 52 -1 0c-8,0 -15,-1 -23,-1 -7,0 -15,1 -23,1l-1 0 -4 -7c-2,-2 -3,-4 -4,-6l-23 -39 3 -1zm-19 66l-12 7 0 0c-5,-3 -10,-6 -15,-9l-43 -27 1 -1c1,-2 2,-3 4,-5 18,-15 51,-25 74,-29l2 0 22 37c3,4 5,8 7,13l1 1 -1 1c-2,1 -9,2 -10,2 -6,2 -12,3 -18,5 -4,2 -8,3 -12,5zm102 -14c2,-5 5,-9 7,-13l22 -37 2 0c18,3 46,11 62,21 5,3 14,8 17,13l0 1 -58 36 -1 0c-1,-1 -2,-1 -3,-2 -2,-1 -4,-3 -6,-4 -4,-2 -9,-4 -14,-6 -4,-1 -9,-2 -13,-3 -2,-1 -13,-3 -14,-4l-2 -1 1 -1zm116 -10c5,10 10,18 5,29 -10,23 -47,40 -69,44l-4 1 2 -3c1,-2 4,-4 6,-6 3,-3 5,-6 6,-10 1,-4 1,-7 -1,-11 -1,-3 -3,-6 -4,-8l-1 -2 59 -36 1 2zm-229 74c-8,-2 -20,-6 -28,-10 -16,-7 -35,-18 -42,-35 -3,-6 -2,-10 -1,-16 2,-7 3,-8 6,-13l1 -1 1 0c2,1 6,3 8,4 5,3 10,6 14,9 7,4 14,9 21,13 3,2 10,7 13,8l2 1 -1 1c0,2 -2,4 -2,5 -2,3 -3,5 -3,8 -2,10 6,17 13,23l5 4 -7 -1zm-53 -10c3,1 5,2 8,4 3,2 7,3 11,5 3,1 5,2 8,4 1,0 4,1 5,2l1 1 0 25 -2 0c-10,-3 -24,-9 -32,-15l-1 0 0 -27 2 1zm237 41l0 -26 1 0c6,-2 11,-5 17,-7 5,-2 10,-7 15,-8l2 -1 0 24c0,5 -13,10 -16,11 -3,2 -7,3 -10,5 -2,0 -5,1 -7,2l-2 0zm-199 2l0 -26 2 1c7,1 14,3 21,5 24,5 50,8 74,8 12,0 25,-1 37,-2 12,-1 25,-3 37,-6 7,-1 14,-4 21,-5l2 -1 0 26 -1 0c-3,2 -8,3 -11,4 -4,1 -7,1 -11,2 -10,2 -14,4 -24,1 -32,-7 -67,-7 -99,0 -11,3 -14,1 -24,-1 -4,0 -8,-1 -11,-2 -4,-1 -9,-2 -12,-4l-1 0zm-40 11l0 0 0 -23 3 1c5,3 9,7 14,9 5,3 11,6 17,8l1 1 0 21 -2 -1c-8,-2 -18,-6 -25,-10l-6 -4 0 0c-1,-1 -2,-1 -2,-2zm239 17l0 -21 1 -1c7,-2 13,-5 19,-9 4,-2 8,-5 13,-8l2 -1 0 3c0,5 0,10 0,14 0,3 0,5 -1,7 -1,2 -4,3 -6,4 -8,4 -17,9 -25,11l-3 1zm-197 -18c5,1 11,3 16,5 6,1 12,2 18,4l1 0 6 19 -2 0c-7,0 -14,-1 -21,-3 -6,-1 -13,-3 -19,-5l-1 0 0 -21 2 1zm149 28l6 -19 1 0c6,-1 12,-3 17,-4 6,-2 12,-4 17,-5l2 -1 0 21 -1 0c-6,2 -13,4 -19,5 -6,2 -14,3 -20,3l-3 0zm94 -170l0 0c8,-8 21,1 25,-6 0,0 -1,0 -1,-1 -5,0 -8,-2 -12,-5 -4,-3 -7,-3 -12,-4l0 16zm-89 -40l0 -1c9,-8 21,1 26,-6 -6,0 -8,-1 -13,-5 -5,-3 -8,-4 -13,-4l0 16zm-118 0l0 -16c-4,0 -8,1 -11,3 -5,4 -9,5 -14,6 0,1 1,2 2,2 4,2 12,0 18,1 2,1 4,2 5,3 0,1 0,1 0,1zm-88 40l-1 -16c-6,1 -8,2 -14,6 -1,1 -3,2 -4,2 -2,1 -5,1 -7,2 4,7 17,-2 25,6l1 0z"/>
 </g>
</svg>
